<mxfile host="app.diagrams.net" agent="Mozilla/5.0 (Windows NT 10.0; Win64; x64) AppleWebKit/537.36 (KHTML, like Gecko) Chrome/134.0.0.0 Safari/537.36" version="26.1.0">
  <diagram name="Page-1" id="osoYe64SteGy93Iwhra8">
    <mxGraphModel dx="2510" dy="1097" grid="1" gridSize="10" guides="1" tooltips="1" connect="1" arrows="1" fold="1" page="1" pageScale="1" pageWidth="827" pageHeight="1169" math="0" shadow="0">
      <root>
        <mxCell id="0" />
        <mxCell id="1" parent="0" />
        <mxCell id="pwzH8uqIPqPZqBq7KB9k-12" value="" style="rounded=1;whiteSpace=wrap;html=1;fillColor=#dae8fc;strokeColor=#6c8ebf;" vertex="1" parent="1">
          <mxGeometry x="-510" y="500" width="1010" height="220" as="geometry" />
        </mxCell>
        <mxCell id="pwzH8uqIPqPZqBq7KB9k-11" value="" style="rounded=1;whiteSpace=wrap;html=1;fillColor=light-dark(#f0f6ff, #1d293b);strokeColor=#6c8ebf;dashed=1;" vertex="1" parent="1">
          <mxGeometry x="-510" y="310" width="1010" height="180" as="geometry" />
        </mxCell>
        <mxCell id="rUOn_wYNrY0pTENIG_aQ-1" value="Browser" style="verticalLabelPosition=bottom;html=1;verticalAlign=top;align=center;strokeColor=none;fillColor=#00BEF2;shape=mxgraph.azure.computer;pointerEvents=1;" parent="1" vertex="1">
          <mxGeometry x="-377.5" y="350" width="140" height="110" as="geometry" />
        </mxCell>
        <mxCell id="rUOn_wYNrY0pTENIG_aQ-2" value="" style="image;sketch=0;aspect=fixed;html=1;points=[];align=center;fontSize=12;image=img/lib/mscae/App_Services.svg;" parent="1" vertex="1">
          <mxGeometry y="367.25" width="50" height="50" as="geometry" />
        </mxCell>
        <mxCell id="pwzH8uqIPqPZqBq7KB9k-7" value="" style="edgeStyle=orthogonalEdgeStyle;rounded=0;orthogonalLoop=1;jettySize=auto;html=1;" edge="1" parent="1" source="rUOn_wYNrY0pTENIG_aQ-3">
          <mxGeometry relative="1" as="geometry">
            <mxPoint x="25" y="510" as="targetPoint" />
          </mxGeometry>
        </mxCell>
        <mxCell id="rUOn_wYNrY0pTENIG_aQ-3" value="Azure App Services &lt;br&gt;- frontend" style="text;html=1;align=center;verticalAlign=middle;resizable=0;points=[];autosize=1;strokeColor=none;fillColor=none;" parent="1" vertex="1">
          <mxGeometry x="-40" y="426" width="130" height="40" as="geometry" />
        </mxCell>
        <mxCell id="rUOn_wYNrY0pTENIG_aQ-4" value="" style="shape=image;html=1;verticalAlign=top;verticalLabelPosition=bottom;labelBackgroundColor=#ffffff;imageAspect=0;aspect=fixed;image=https://cdn1.iconfinder.com/data/icons/ionicons-fill-vol-2/512/logo-javascript-128.png" parent="1" vertex="1">
          <mxGeometry x="-380" y="333.75" width="50" height="50" as="geometry" />
        </mxCell>
        <mxCell id="rUOn_wYNrY0pTENIG_aQ-5" value="" style="image;sketch=0;aspect=fixed;html=1;points=[];align=center;fontSize=12;image=img/lib/mscae/App_Services.svg;" parent="1" vertex="1">
          <mxGeometry y="515" width="50" height="50" as="geometry" />
        </mxCell>
        <mxCell id="rUOn_wYNrY0pTENIG_aQ-6" value="Azure App Services &lt;br&gt;- backend" style="text;html=1;align=center;verticalAlign=middle;resizable=0;points=[];autosize=1;strokeColor=none;fillColor=none;" parent="1" vertex="1">
          <mxGeometry x="-40" y="575" width="130" height="40" as="geometry" />
        </mxCell>
        <mxCell id="rUOn_wYNrY0pTENIG_aQ-8" value="" style="image;aspect=fixed;html=1;points=[];align=center;fontSize=12;image=img/lib/azure2/storage/Storage_Accounts.svg;" parent="1" vertex="1">
          <mxGeometry x="381.5" y="520" width="65" height="52" as="geometry" />
        </mxCell>
        <mxCell id="rUOn_wYNrY0pTENIG_aQ-9" value="Azure storage Account&lt;div&gt;&lt;br&gt;&lt;/div&gt;" style="text;html=1;align=center;verticalAlign=middle;resizable=0;points=[];autosize=1;strokeColor=none;fillColor=none;" parent="1" vertex="1">
          <mxGeometry x="344" y="583" width="140" height="40" as="geometry" />
        </mxCell>
        <mxCell id="rUOn_wYNrY0pTENIG_aQ-11" value="call&lt;br&gt;endpoint:&lt;br&gt;upload files to blob" style="text;html=1;align=center;verticalAlign=middle;resizable=0;points=[];autosize=1;strokeColor=none;fillColor=none;" parent="1" vertex="1">
          <mxGeometry x="160" y="640" width="120" height="60" as="geometry" />
        </mxCell>
        <mxCell id="rUOn_wYNrY0pTENIG_aQ-19" value="" style="verticalLabelPosition=bottom;html=1;verticalAlign=top;align=center;strokeColor=none;fillColor=#00BEF2;shape=mxgraph.azure.user;" parent="1" vertex="1">
          <mxGeometry x="196.25" y="593.75" width="47.5" height="50" as="geometry" />
        </mxCell>
        <mxCell id="rUOn_wYNrY0pTENIG_aQ-20" value="Service Principal" style="text;html=1;align=center;verticalAlign=middle;resizable=0;points=[];autosize=1;strokeColor=none;fillColor=none;" parent="1" vertex="1">
          <mxGeometry x="170" y="550" width="110" height="30" as="geometry" />
        </mxCell>
        <mxCell id="rUOn_wYNrY0pTENIG_aQ-21" value="Vendor" style="sketch=0;aspect=fixed;pointerEvents=1;shadow=0;dashed=0;html=1;strokeColor=none;labelPosition=center;verticalLabelPosition=bottom;verticalAlign=top;align=center;fillColor=#00188D;shape=mxgraph.azure.user" parent="1" vertex="1">
          <mxGeometry x="-450" y="366.25" width="47" height="50" as="geometry" />
        </mxCell>
        <mxCell id="pwzH8uqIPqPZqBq7KB9k-1" value="" style="image;aspect=fixed;html=1;points=[];align=center;fontSize=12;image=img/lib/azure2/general/Browser.svg;" vertex="1" parent="1">
          <mxGeometry x="-340" y="365.25" width="65" height="52" as="geometry" />
        </mxCell>
        <mxCell id="pwzH8uqIPqPZqBq7KB9k-2" value="" style="endArrow=classic;html=1;rounded=0;exitX=0.87;exitY=0.65;exitDx=0;exitDy=0;exitPerimeter=0;" edge="1" parent="1" source="rUOn_wYNrY0pTENIG_aQ-21">
          <mxGeometry width="50" height="50" relative="1" as="geometry">
            <mxPoint x="40" y="420" as="sourcePoint" />
            <mxPoint x="-340" y="399" as="targetPoint" />
          </mxGeometry>
        </mxCell>
        <mxCell id="pwzH8uqIPqPZqBq7KB9k-3" value="Okta sign-in" style="sketch=0;verticalLabelPosition=bottom;sketch=0;aspect=fixed;html=1;verticalAlign=top;strokeColor=none;fillColor=#000000;align=center;outlineConnect=0;pointerEvents=1;shape=mxgraph.citrix2.authentication_okta;" vertex="1" parent="1">
          <mxGeometry x="-180" y="371.25" width="50" height="50" as="geometry" />
        </mxCell>
        <mxCell id="pwzH8uqIPqPZqBq7KB9k-4" value="" style="endArrow=classic;html=1;rounded=0;" edge="1" parent="1">
          <mxGeometry width="50" height="50" relative="1" as="geometry">
            <mxPoint x="-270" y="400" as="sourcePoint" />
            <mxPoint x="-180" y="400" as="targetPoint" />
          </mxGeometry>
        </mxCell>
        <mxCell id="pwzH8uqIPqPZqBq7KB9k-5" style="edgeStyle=orthogonalEdgeStyle;rounded=0;orthogonalLoop=1;jettySize=auto;html=1;entryX=-0.024;entryY=0.566;entryDx=0;entryDy=0;entryPerimeter=0;" edge="1" parent="1" source="pwzH8uqIPqPZqBq7KB9k-3" target="rUOn_wYNrY0pTENIG_aQ-2">
          <mxGeometry relative="1" as="geometry" />
        </mxCell>
        <mxCell id="pwzH8uqIPqPZqBq7KB9k-6" style="edgeStyle=orthogonalEdgeStyle;rounded=0;orthogonalLoop=1;jettySize=auto;html=1;exitX=0.943;exitY=0.484;exitDx=0;exitDy=0;exitPerimeter=0;" edge="1" parent="1" source="rUOn_wYNrY0pTENIG_aQ-5">
          <mxGeometry relative="1" as="geometry">
            <mxPoint x="-120" y="406" as="sourcePoint" />
            <mxPoint x="390" y="540" as="targetPoint" />
            <Array as="points">
              <mxPoint x="382" y="539" />
            </Array>
          </mxGeometry>
        </mxCell>
      </root>
    </mxGraphModel>
  </diagram>
</mxfile>
